HIERARCHY
ROOT Model
{
	OFFSET 0 0 0
	CHANNELS 6 Xposition Yposition Zposition Zrotation Xrotation Yrotation
	JOINT Model1
	{
		OFFSET 0 -2.25479 2.99384
		CHANNELS 3 Zrotation Xrotation Yrotation
		JOINT Model2
		{
			OFFSET 12.111 0 0
			CHANNELS 3 Zrotation Xrotation Yrotation
			JOINT Model3
			{
				OFFSET 11.5502 0 0
				CHANNELS 3 Zrotation Xrotation Yrotation
				JOINT Model4
				{
					OFFSET 11.781 0 0
					CHANNELS 3 Zrotation Xrotation Yrotation
					JOINT Model5
					{
						OFFSET 20.0601 0 0
						CHANNELS 3 Zrotation Xrotation Yrotation
						JOINT Model6
						{
							OFFSET 11.1962 0 0
							CHANNELS 3 Zrotation Xrotation Yrotation
							End Site
							{
								OFFSET 0 0 0
							}
						}
					}
					JOINT Model7
					{
						OFFSET 10.8223 0.417534 3.51114
						CHANNELS 3 Zrotation Xrotation Yrotation
						JOINT Model8
						{
							OFFSET -6.07944 0 0
							CHANNELS 3 Zrotation Xrotation Yrotation
							JOINT Model9
							{
								OFFSET -0.277405 10.39 -0.051239
								CHANNELS 3 Zrotation Xrotation Yrotation
								JOINT Model10
								{
									OFFSET -3.43909 -0.282043 1.86679
									CHANNELS 3 Zrotation Xrotation Yrotation
									JOINT Model11
									{
										OFFSET 13.0269 0 0
										CHANNELS 3 Zrotation Xrotation Yrotation
										JOINT Model12
										{
											OFFSET 10.8866 0 0
											CHANNELS 3 Zrotation Xrotation Yrotation
											JOINT Model13
											{
												OFFSET 16.7317 0 0
												CHANNELS 3 Zrotation Xrotation Yrotation
												JOINT Model14
												{
													OFFSET 11.8292 0 0
													CHANNELS 3 Zrotation Xrotation Yrotation
													JOINT Model15
													{
														OFFSET 4.82751 -3.73566 -0.836517
														CHANNELS 3 Zrotation Xrotation Yrotation
														JOINT Model16
														{
															OFFSET 3.75311 -0.0582886 -0.0186462
															CHANNELS 3 Zrotation Xrotation Yrotation
															JOINT Model17
															{
																OFFSET 2.88689 0.0192337 0.014801
																CHANNELS 3 Zrotation Xrotation Yrotation
																End Site
																{
																	OFFSET 0 0 0
																}
															}
														}
													}
													JOINT Model18
													{
														OFFSET 9.72197 -3.06458 0.23877
														CHANNELS 3 Zrotation Xrotation Yrotation
														JOINT Model19
														{
															OFFSET 4.61131 0 0
															CHANNELS 3 Zrotation Xrotation Yrotation
															JOINT Model20
															{
																OFFSET 2.8969 -7.62939e-006 0
																CHANNELS 3 Zrotation Xrotation Yrotation
																End Site
																{
																	OFFSET 0 0 0
																}
															}
														}
													}
													JOINT Model21
													{
														OFFSET 9.54431 -0.745064 0.588928
														CHANNELS 3 Zrotation Xrotation Yrotation
														JOINT Model22
														{
															OFFSET 5.33978 0 0
															CHANNELS 3 Zrotation Xrotation Yrotation
															JOINT Model23
															{
																OFFSET 3.03619 7.62939e-006 0
																CHANNELS 3 Zrotation Xrotation Yrotation
																End Site
																{
																	OFFSET 0 0 0
																}
															}
														}
													}
													JOINT Model24
													{
														OFFSET 9.47758 1.51286 0.485107
														CHANNELS 3 Zrotation Xrotation Yrotation
														JOINT Model25
														{
															OFFSET 4.96136 7.62939e-006 0
															CHANNELS 3 Zrotation Xrotation Yrotation
															JOINT Model26
															{
																OFFSET 2.51965 0 0
																CHANNELS 3 Zrotation Xrotation Yrotation
																End Site
																{
																	OFFSET 0 0 0
																}
															}
														}
													}
													JOINT Model27
													{
														OFFSET 9.34247 3.34117 -0.239288
														CHANNELS 3 Zrotation Xrotation Yrotation
														JOINT Model28
														{
															OFFSET 3.28259 2.28882e-005 0
															CHANNELS 3 Zrotation Xrotation Yrotation
															JOINT Model29
															{
																OFFSET 2.1292 0 0
																CHANNELS 3 Zrotation Xrotation Yrotation
																End Site
																{
																	OFFSET 0 0 0
																}
															}
														}
													}
												}
											}
										}
									}
								}
							}
						}
					}
					JOINT Model30
					{
						OFFSET 10.8223 0.4179 -3.51108
						CHANNELS 3 Zrotation Xrotation Yrotation
						JOINT Model31
						{
							OFFSET 6.07944 0 0
							CHANNELS 3 Zrotation Xrotation Yrotation
							JOINT Model32
							{
								OFFSET 0.277405 -10.39 0.051239
								CHANNELS 3 Zrotation Xrotation Yrotation
								JOINT Model33
								{
									OFFSET 3.43909 0.282043 -1.86679
									CHANNELS 3 Zrotation Xrotation Yrotation
									JOINT Model34
									{
										OFFSET -13.0269 0 0
										CHANNELS 3 Zrotation Xrotation Yrotation
										JOINT Model35
										{
											OFFSET -10.8866 0 0
											CHANNELS 3 Zrotation Xrotation Yrotation
											JOINT Model36
											{
												OFFSET -16.7317 0 0
												CHANNELS 3 Zrotation Xrotation Yrotation
												JOINT Model37
												{
													OFFSET -11.8292 0 0
													CHANNELS 3 Zrotation Xrotation Yrotation
													JOINT Model38
													{
														OFFSET -4.82751 3.73566 0.836517
														CHANNELS 3 Zrotation Xrotation Yrotation
														JOINT Model39
														{
															OFFSET -3.75311 0.0582886 0.0186462
															CHANNELS 3 Zrotation Xrotation Yrotation
															JOINT Model40
															{
																OFFSET -2.88687 -0.0192337 -0.014801
																CHANNELS 3 Zrotation Xrotation Yrotation
																End Site
																{
																	OFFSET 0 0 0
																}
															}
														}
													}
													JOINT Model41
													{
														OFFSET -9.72198 3.06459 -0.23877
														CHANNELS 3 Zrotation Xrotation Yrotation
														JOINT Model42
														{
															OFFSET -4.6113 0 0
															CHANNELS 3 Zrotation Xrotation Yrotation
															JOINT Model43
															{
																OFFSET -2.89691 0 0
																CHANNELS 3 Zrotation Xrotation Yrotation
																End Site
																{
																	OFFSET 0 0 0
																}
															}
														}
													}
													JOINT Model44
													{
														OFFSET -9.54431 0.745064 -0.588928
														CHANNELS 3 Zrotation Xrotation Yrotation
														JOINT Model45
														{
															OFFSET -5.33978 0 0
															CHANNELS 3 Zrotation Xrotation Yrotation
															JOINT Model46
															{
																OFFSET -3.03619 -1.52588e-005 0
																CHANNELS 3 Zrotation Xrotation Yrotation
																End Site
																{
																	OFFSET 0 0 0
																}
															}
														}
													}
													JOINT Model47
													{
														OFFSET -9.4776 -1.51286 -0.485107
														CHANNELS 3 Zrotation Xrotation Yrotation
														JOINT Model48
														{
															OFFSET -4.96136 -1.52588e-005 0
															CHANNELS 3 Zrotation Xrotation Yrotation
															JOINT Model49
															{
																OFFSET -2.51965 0 0
																CHANNELS 3 Zrotation Xrotation Yrotation
																End Site
																{
																	OFFSET 0 0 0
																}
															}
														}
													}
													JOINT Model50
													{
														OFFSET -9.34247 -3.34118 0.239288
														CHANNELS 3 Zrotation Xrotation Yrotation
														JOINT Model51
														{
															OFFSET -3.28259 -2.28882e-005 0
															CHANNELS 3 Zrotation Xrotation Yrotation
															JOINT Model52
															{
																OFFSET -2.12921 0 0
																CHANNELS 3 Zrotation Xrotation Yrotation
																End Site
																{
																	OFFSET 0 0 0
																}
															}
														}
													}
												}
											}
										}
									}
								}
							}
						}
					}
				}
			}
		}
	}
	JOINT Model53
	{
		OFFSET 4.38025 -2.14632 -1.11517
		CHANNELS 3 Zrotation Xrotation Yrotation
		JOINT Model54
		{
			OFFSET 0 0 4.94998
			CHANNELS 3 Zrotation Xrotation Yrotation
			JOINT Model55
			{
				OFFSET 18.5642 0 0
				CHANNELS 3 Zrotation Xrotation Yrotation
				JOINT Model56
				{
					OFFSET 21.2884 0 0
					CHANNELS 3 Zrotation Xrotation Yrotation
					JOINT Model57
					{
						OFFSET 30.261 0 0
						CHANNELS 3 Zrotation Xrotation Yrotation
						JOINT Model58
						{
							OFFSET 11.7259 0 0
							CHANNELS 3 Zrotation Xrotation Yrotation
							JOINT Model59
							{
								OFFSET 10.682 0 0
								CHANNELS 3 Zrotation Xrotation Yrotation
								End Site
								{
									OFFSET 0 0 0
								}
							}
						}
					}
				}
			}
		}
	}
	JOINT Model60
	{
		OFFSET -4.38025 -2.14632 -1.11517
		CHANNELS 3 Zrotation Xrotation Yrotation
		JOINT Model61
		{
			OFFSET 0 0 -4.94998
			CHANNELS 3 Zrotation Xrotation Yrotation
			JOINT Model62
			{
				OFFSET -18.5642 0 0
				CHANNELS 3 Zrotation Xrotation Yrotation
				JOINT Model63
				{
					OFFSET -21.2884 0 0
					CHANNELS 3 Zrotation Xrotation Yrotation
					JOINT Model64
					{
						OFFSET -30.261 0 0
						CHANNELS 3 Zrotation Xrotation Yrotation
						JOINT Model65
						{
							OFFSET -11.7259 0 0
							CHANNELS 3 Zrotation Xrotation Yrotation
							JOINT Model66
							{
								OFFSET -10.682 0 0
								CHANNELS 3 Zrotation Xrotation Yrotation
								End Site
								{
									OFFSET 0 0 0
								}
							}
						}
					}
				}
			}
		}
	}
}
MOTION
Frames: 4
Frame Time: 0.033333
-666.637 173.913 -748.543 92.6559 -52.0873 93.3742 -180 4.29621e-031 -90 0.106993 -0.00893697 -0.063084 0.213973 -0.0184288 -0.126151 0.213973 -0.0179917 -0.126153 -1.17419 1.40996 2.23773 15.4635 1.91932 0.585967 120.092 75.5343 58.4939 15.2844 -2.32187 -2.62491 -167.277 84.4999 48.8109 173.434 -13.5017 -27.4241 3.88523e-006 12.7985 3.04272e-005 -2.45001 1.52451 2.62288 3.32976e-007 2.29682 2.40467e-007 0.737355 -0.00483841 -0.751912 -72.0648 39.0385 39.3397 33.3638 2.10362 14.835 0.588947 0.308273 6.35287 -99.6409 81.413 100.35 -0.0181409 2.77678e-005 -0.117315 -0.124139 0.00241111 -0.799296 -79.8382 79.5773 80.5374 -0.000225768 -0.000220933 2.21859e-005 -0.000956215 0.000122881 -2.73323e-005 -66.7416 80.4058 67.2171 -0.000437124 1.59348e-005 -2.73292e-005 -0.000136592 -0.000109306 -5.4653e-005 -6.42159 81.2158 8.01779 -0.000218557 1.68896e-005 0.000212132 0.000901596 -0.000184827 -0.000218576 -59.9282 75.5373 58.5147 13.6943 6.87509 -0.690464 -167.277 84.4999 48.8109 174.588 -21.0466 -21.0576 7.15801e-006 -0.382831 2.90858e-005 -1.57213 9.236 -0.108473 -5.50834e-006 13.8814 2.35855e-006 0.127956 -0.00872988 -7.80693 -72.0648 39.0385 39.3397 33.3638 2.10361 14.835 0.588946 0.308273 6.35287 -99.6409 81.413 100.35 -0.0181409 3.00867e-005 -0.117315 -0.124139 0.00241114 -0.799296 -79.8382 79.5773 80.5374 -0.000260644 -0.000218558 2.35782e-005 -0.000956224 0.000123008 -2.73102e-005 -66.7416 80.4058 67.2171 -0.00043713 1.48898e-005 -2.73131e-005 -0.000136601 -0.000109271 -5.46311e-005 -6.42159 81.2158 8.01779 -0.000218563 1.95868e-005 0.000212303 0.000901587 -0.000191234 -0.000218558 0.000811311 0.56661 89.91 -14.7673 -2.51542 -7.2077 3.30015e-007 0.887833 -9.75095e-010 38.159 -3.08877 -2.42533 -1.4434e-007 -4.70952 -1.44932e-007 -71.03 -6.4688 2.24499 -35.4947 5.97194e-007 -1.17378e-007 -180 -0.566579 -90.09 -15.8335 -4.80864 -8.721 -6.09052e-007 -1.73639 -1.78679e-008 35.7273 -2.77673 -1.22163 2.86156e-007 -4.23362 -2.6156e-007 -66.7987 -6.77078 2.86137 -35.4947 1.01945e-007 -1.45977e-007 
-666.669 173.914 -748.5 92.5827 -52.0074 93.3278 -180 4.29621e-031 -90 0.107905 -0.027369 -0.0550428 0.215782 -0.0552788 -0.110034 0.215782 -0.0548416 -0.110036 -1.37334 1.3818 2.49009 15.8203 1.92936 0.206853 120.092 75.5343 58.4939 14.9357 -2.1649 -2.54803 -167.277 84.4999 48.8109 173.441 -13.4414 -27.7554 3.76875e-006 13.0122 3.04532e-005 -2.67227 1.56222 2.55806 3.3276e-007 2.34834 2.40476e-007 1.00357 -0.00387178 -0.442079 -72.0648 39.0385 39.3397 33.3638 2.10362 14.835 0.588947 0.308273 6.35287 -99.6409 81.413 100.35 -0.0181409 2.77678e-005 -0.117315 -0.124139 0.00241111 -0.799296 -79.8382 79.5773 80.5374 -0.000225768 -0.000220933 2.21859e-005 -0.000956215 0.000122881 -2.73323e-005 -66.7416 80.4058 67.2171 -0.000437124 1.59348e-005 -2.73292e-005 -0.000136592 -0.000109306 -5.4653e-005 -6.42159 81.2158 8.01779 -0.000218557 1.68896e-005 0.000212132 0.000901596 -0.000184827 -0.000218576 -59.9282 75.5373 58.5147 13.7098 6.64642 -0.735917 -167.277 84.4999 48.8109 174.387 -20.9398 -20.8576 7.15586e-006 -0.378597 2.90858e-005 -1.56824 9.34348 -0.110334 -5.51519e-006 14.0427 2.3602e-006 -0.874443 0.0582919 -7.62735 -72.0648 39.0385 39.3397 33.3638 2.10361 14.835 0.588946 0.308273 6.35287 -99.6409 81.413 100.35 -0.0181409 3.00867e-005 -0.117315 -0.124139 0.00241114 -0.799296 -79.8382 79.5773 80.5374 -0.000260644 -0.000218558 2.35782e-005 -0.000956224 0.000123008 -2.73102e-005 -66.7416 80.4058 67.2171 -0.00043713 1.48898e-005 -2.73131e-005 -0.000136601 -0.000109271 -5.46311e-005 -6.42159 81.2158 8.01779 -0.000218563 1.95868e-005 0.000212303 0.000901587 -0.000191234 -0.000218558 0.000811311 0.56661 89.91 -14.8779 -2.71341 -7.4946 3.30013e-007 0.760466 -9.75063e-010 38.1673 -2.92059 -2.27152 -1.43698e-007 -4.45652 -1.44881e-007 -71.0245 -6.34329 2.18214 -35.4947 6.04286e-007 9.55035e-008 -180 -0.566579 -90.09 -15.8429 -4.81356 -8.65769 -6.09067e-007 -1.78436 -1.78684e-008 35.7563 -2.83758 -1.24144 2.85737e-007 -4.32501 -2.61591e-007 -66.834 -6.78511 2.86532 -35.4947 9.4858e-007 1.41525e-006 
-666.686 173.923 -748.468 92.5083 -51.9889 93.2796 -180 4.29621e-031 -90 0.104952 -0.0332715 -0.0564865 0.209869 -0.0670836 -0.112912 0.209868 -0.0666464 -0.112914 -1.44532 1.37745 2.64754 15.9825 1.9504 0.0246154 120.092 75.5343 58.4939 14.7505 -2.07471 -2.50558 -167.277 84.4999 48.8109 173.458 -13.347 -27.8912 3.66091e-006 13.2098 3.04776e-005 -2.84147 1.49844 2.36152 3.33179e-007 2.24841 2.40459e-007 1.13258 -0.00139405 -0.141033 -72.0648 39.0385 39.3397 33.3638 2.10362 14.835 0.588947 0.308273 6.35287 -99.6409 81.413 100.35 -0.0181409 2.77678e-005 -0.117315 -0.124139 0.00241111 -0.799296 -79.8382 79.5773 80.5374 -0.000225768 -0.000220933 2.21859e-005 -0.000956215 0.000122881 -2.73323e-005 -66.7416 80.4058 67.2171 -0.000437124 1.59348e-005 -2.73292e-005 -0.000136592 -0.000109306 -5.4653e-005 -6.42159 81.2158 8.01779 -0.000218557 1.68896e-005 0.000212132 0.000901596 -0.000184827 -0.000218576 -59.9282 75.5373 58.5147 13.6308 6.57546 -0.731643 -167.277 84.4999 48.8109 174.345 -20.898 -20.7413 7.15495e-006 -0.376809 2.90858e-005 -1.56228 9.50216 -0.113222 -5.52531e-006 14.2808 2.36268e-006 -1.38397 0.0934071 -7.72189 -72.0648 39.0385 39.3397 33.3638 2.10361 14.835 0.588946 0.308273 6.35287 -99.6409 81.413 100.35 -0.0181409 3.00867e-005 -0.117315 -0.124139 0.00241114 -0.799296 -79.8382 79.5773 80.5374 -0.000260644 -0.000218558 2.35782e-005 -0.000956224 0.000123008 -2.73102e-005 -66.7416 80.4058 67.2171 -0.00043713 1.48898e-005 -2.73131e-005 -0.000136601 -0.000109271 -5.46311e-005 -6.42159 81.2158 8.01779 -0.000218563 1.95868e-005 0.000212303 0.000901587 -0.000191234 -0.000218558 0.000811311 0.56661 89.91 -14.9177 -2.81384 -7.62937 3.30012e-007 0.690561 -9.75048e-010 38.1275 -2.84481 -2.22367 -1.43409e-007 -4.34255 -1.44858e-007 -71.0125 -6.30054 2.16177 -35.4947 6.19576e-007 -1.59496e-006 -180 -0.566579 -90.09 -15.8694 -4.86402 -8.68151 -6.09087e-007 -1.84903 -1.7869e-008 35.7548 -2.85556 -1.16437 2.85614e-007 -4.35185 -2.616e-007 -66.8391 -6.7346 2.83688 -35.4947 3.44696e-006 3.34321e-006 
-666.676 173.935 -748.453 92.4571 -52.054 93.2358 -180 4.29621e-031 -90 0.102859 -0.0231282 -0.0692767 0.205688 -0.0468179 -0.138512 0.205688 -0.0463808 -0.138513 -1.44051 1.40781 2.66645 15.9904 1.98708 0.0668633 120.092 75.5343 58.4939 14.8067 -2.05761 -2.51056 -167.277 84.4999 48.8109 173.477 -13.1997 -27.773 3.56097e-006 13.3925 3.05006e-005 -2.87684 1.36518 2.09349 3.34025e-007 2.04713 2.40427e-007 1.13518 0.000503707 0.0508577 -72.0648 39.0385 39.3397 33.3638 2.10362 14.835 0.588947 0.308273 6.35287 -99.6409 81.413 100.35 -0.0181409 2.77678e-005 -0.117315 -0.124139 0.00241111 -0.799296 -79.8382 79.5773 80.5374 -0.000225768 -0.000220933 2.21859e-005 -0.000956215 0.000122881 -2.73323e-005 -66.7416 80.4058 67.2171 -0.000437124 1.59348e-005 -2.73292e-005 -0.000136592 -0.000109306 -5.4653e-005 -6.42159 81.2158 8.01779 -0.000218557 1.68896e-005 0.000212132 0.000901596 -0.000184827 -0.000218576 -59.9282 75.5373 58.5147 13.5351 6.6597 -0.695065 -167.277 84.4999 48.8109 174.44 -20.9034 -20.6636 7.15491e-006 -0.376737 2.90858e-005 -1.55824 9.60723 -0.115207 -5.53202e-006 14.4385 2.36435e-006 -1.2791 0.0884325 -7.9095 -72.0648 39.0385 39.3397 33.3638 2.10361 14.835 0.588946 0.308273 6.35287 -99.6409 81.413 100.35 -0.0181409 3.00867e-005 -0.117315 -0.124139 0.00241114 -0.799296 -79.8382 79.5773 80.5374 -0.000260644 -0.000218558 2.35782e-005 -0.000956224 0.000123008 -2.73102e-005 -66.7416 80.4058 67.2171 -0.00043713 1.48898e-005 -2.73131e-005 -0.000136601 -0.000109271 -5.46311e-005 -6.42159 81.2158 8.01779 -0.000218563 1.95868e-005 0.000212303 0.000901587 -0.000191234 -0.000218558 0.000811311 0.56661 89.91 -14.8868 -2.86462 -7.64196 3.3001e-007 0.625917 -9.75036e-010 38.0645 -2.81713 -2.24553 -1.43303e-007 -4.30093 -1.4485e-007 -71.0224 -6.28753 2.15417 -35.4947 6.42633e-007 -5.09198e-006 -180 -0.566579 -90.09 -15.9173 -4.98681 -8.86648 -6.09111e-007 -1.92553 -1.78698e-008 35.7414 -2.72994 -0.94289 2.86479e-007 -4.16303 -2.61536e-007 -66.8575 -6.55668 2.73669 -35.4947 7.51016e-006 5.61957e-006 
